<?xml version="1.0" standalone="no"?>
<!DOCTYPE svg PUBLIC "-//W3C//DTD SVG 20010904//EN"
 "http://www.w3.org/TR/2001/REC-SVG-20010904/DTD/svg10.dtd">
<svg version="1.0" xmlns="http://www.w3.org/2000/svg"
 width="687.000000pt" height="631.000000pt" viewBox="0 0 687.000000 631.000000"
 preserveAspectRatio="xMidYMid meet">

<g transform="translate(0.000000,631.000000) scale(0.100000,-0.100000)"
fill="#000000" stroke="none">
<path d="M2440 6251 c-39 -12 -90 -40 -148 -81 -37 -27 -75 -43 -126 -54 -57
-13 -79 -24 -104 -49 -33 -34 -52 -75 -52 -109 0 -12 -12 -51 -27 -87 -24 -57
-27 -80 -28 -171 0 -101 1 -108 37 -180 20 -41 50 -91 67 -110 l30 -35 -30 61
c-58 116 -62 284 -8 284 13 0 24 -10 30 -30 6 -16 14 -30 18 -30 12 0 57 53
83 100 44 77 69 94 147 98 57 3 92 -2 202 -33 74 -21 155 -38 182 -39 47 -1
47 -1 61 -46 22 -68 28 -130 17 -185 -5 -27 -8 -51 -6 -53 2 -2 13 23 25 55
25 65 30 201 11 263 -7 22 -7 38 -1 44 14 14 13 34 -5 92 -19 66 -73 126 -147
166 -44 23 -68 44 -87 75 -35 58 -75 74 -141 54z"/>
<path d="M2530 5163 c0 -36 -36 -93 -70 -111 -67 -35 -164 14 -177 90 -7 45
-10 45 -118 -7 -127 -61 -220 -170 -235 -274 -5 -34 -9 -294 -10 -579 -2 -568
-2 -567 59 -664 l30 -47 -57 -16 c-78 -23 -140 -60 -148 -90 -10 -42 5 -63 70
-95 97 -48 224 -71 432 -77 l181 -6 178 -142 c97 -78 177 -146 177 -149 0 -4
-31 -58 -69 -119 -39 -62 -164 -263 -278 -447 -114 -184 -227 -355 -250 -380
-79 -84 -92 -121 -56 -154 24 -21 171 -58 345 -86 151 -24 156 -24 156 33 0
62 -40 87 -138 87 l-55 0 6 36 c5 30 21 50 84 107 388 353 663 689 723 885 36
115 26 155 -75 294 l-55 78 77 -7 c43 -3 79 -7 81 -8 8 -7 38 -1363 31 -1389
-24 -85 0 -156 54 -156 30 0 188 56 330 116 128 54 137 65 96 118 -28 36 -77
35 -147 -5 -30 -17 -55 -29 -56 -27 -2 2 -9 20 -18 41 -13 35 -13 47 3 120 30
135 87 471 109 637 29 217 38 574 17 693 -18 102 -56 188 -95 215 -41 29 -417
168 -529 197 -54 13 -128 27 -165 31 -78 8 -78 7 -78 137 l0 87 -105 0 -105 0
0 70 0 70 256 0 255 0 -3 41 -3 42 -145 42 -145 42 -2 129 -3 129 168 -173
167 -172 55 -6 55 -6 188 337 c103 186 187 338 185 340 -2 1 -24 9 -51 18
l-47 16 -48 -68 c-26 -37 -94 -135 -152 -218 l-105 -150 -180 175 c-214 207
-369 344 -425 372 -23 12 -70 24 -105 27 l-65 6 0 -30z"/>
<path d="M3989 5147 c-31 -16 -51 -36 -66 -67 -23 -43 -23 -51 -23 -386 0
-199 4 -353 10 -368 l10 -26 -180 0 c-149 0 -181 -3 -194 -16 -20 -19 -20 -38
-2 -53 10 -8 224 -11 807 -9 l794 3 34 24 c68 48 71 67 71 436 0 186 -4 345
-10 365 -12 45 -65 97 -111 110 -20 6 -247 10 -565 10 l-531 0 -44 -23z m691
-422 c16 -19 10 -45 -15 -61 -39 -26 -86 31 -53 64 16 16 53 15 68 -3z"/>
<path d="M5410 4462 c0 -196 -7 -187 150 -187 140 0 150 6 150 82 0 36 3 43
19 43 25 0 61 46 61 77 0 27 -41 73 -65 73 -10 0 -15 10 -15 30 l0 30 -150 0
-150 0 0 -148z m338 46 c19 -19 15 -66 -7 -78 -30 -15 -31 -14 -31 40 0 51 12
64 38 38z"/>
<path d="M1134 3743 c3 -21 9 -172 13 -335 l6 -297 -89 44 c-134 66 -248 97
-374 100 l-105 4 90 -10 c50 -5 126 -18 170 -30 86 -22 245 -88 284 -118 l24
-18 -12 -194 c-6 -106 -13 -195 -16 -197 -2 -2 -26 4 -52 13 -84 30 -453 33
-453 4 0 -6 15 -7 38 -2 59 12 312 8 362 -6 87 -23 100 -32 100 -60 0 -28 -30
-177 -49 -248 l-12 -43 -142 0 c-158 0 -202 -8 -248 -47 -91 -77 -90 -236 2
-306 60 -45 92 -48 419 -45 347 3 357 6 414 86 63 89 39 212 -53 277 -43 30
-43 30 -208 33 -163 4 -165 4 -159 25 3 12 13 52 22 88 l15 67 47 13 c52 15
257 19 310 6 19 -5 32 -5 32 1 0 14 -103 32 -179 32 -36 0 -93 -7 -126 -15
-85 -20 -83 -21 -74 28 4 23 13 112 20 197 l13 155 76 76 c59 59 96 86 167
122 51 25 113 49 138 52 25 4 48 12 52 18 9 14 -64 2 -130 -23 -83 -31 -171
-89 -240 -157 l-62 -62 -1 287 c-1 327 -11 522 -26 522 -7 0 -8 -14 -4 -37z"/>
</g>
</svg>
