<?xml version="1.0" encoding="utf-8"?><svg xmlns="http://www.w3.org/2000/svg" xmlns:xlink="http://www.w3.org/1999/xlink" width="1366" height="636" preserveAspectRatio="xMidYMid" viewBox="0 0 1366 636" style="z-index:1;margin-right:-2px;display:block;background-repeat-y:initial;background-repeat-x:initial;background-color:rgb(241, 242, 243);animation-play-state:paused" ><g transform="translate(683,318) scale(1,1) translate(-683,-318)" style="transform:matrix(1, 0, 0, 1, 0, 0);animation-play-state:paused" ><defs style="animation-play-state:paused" ><linearGradient id="ldbk-photon-385uhr6h1te-lg" x1="658" x2="1366" y1="0" y2="0" gradientUnits="userSpaceOnUse" style="animation-play-state:paused" ><stop stop-color="#0a0a0a" offset="0" style="animation-play-state:paused" ></stop>

    
<stop stop-color="#28292f" offset="1" style="animation-play-state:paused" ></stop></linearGradient>

  
<mask id="ldbk-photon-385uhr6h1te-mask" style="animation-play-state:paused" ><g style="animation-play-state:paused" ><path d="M1666 -0.5 L650.5078651343728 -0.5 A15.5 15.5 0 0 1 650.5078651343728 31.5 L1666 31.5" fill="#fff" transform="matrix(1,0,0,1,35.517337799072266,0)" style="transform:matrix(1, 0, 0, 1, 35.5173, 0);animation-play-state:paused" ></path>
<path d="M1433.220568889844 -0.5 L1469.4411377796878 -0.5 A15.5 15.5 0 0 1 1469.4411377796878 31.5 L1433.220568889844 31.5 A15.5 15.5 0 0 1 1433.220568889844 -0.5" fill="#000" transform="matrix(1,0,0,1,0,0)" opacity="1" style="transform:matrix(1, 0, 0, 1, 0, 0);animation-play-state:paused" ></path>
<path d="M1666 30.5 L605.9815843277119 30.5 A15.5 15.5 0 0 0 605.9815843277119 62.5 L1666 62.5" fill="#fff" transform="matrix(1,0,0,1,-32.316707611083984,0)" style="transform:matrix(1, 0, 0, 1, -32.3167, 0);animation-play-state:paused" ></path>
<path d="M726.415180273288 30.5 L751.0507100619438 30.5 A15.5 15.5 0 0 1 751.0507100619438 62.5 L726.415180273288 62.5 A15.5 15.5 0 0 1 726.415180273288 30.5" fill="#fff" transform="matrix(1,0,0,1,0,0)" opacity="1" style="transform:matrix(1, 0, 0, 1, 0, 0);animation-play-state:paused" ></path>
<path d="M1666 61.5 L630.166734601625 61.5 A15.5 15.5 0 0 1 630.166734601625 93.5 L1666 93.5" fill="#fff" transform="matrix(1,0,0,1,1.342262864112854,0)" style="transform:matrix(1, 0, 0, 1, 1.34226, 0);animation-play-state:paused" ></path>
<path d="M1415.1318243353965 61.5 L1433.263648670793 61.5 A15.5 15.5 0 0 1 1433.263648670793 93.5 L1415.1318243353965 93.5 A15.5 15.5 0 0 1 1415.1318243353965 61.5" fill="#000" transform="matrix(1,0,0,1,-638.3382568359375,0)" opacity="0.612245" style="transform:matrix(1, 0, 0, 1, -638.338, 0);opacity:0.612245;animation-play-state:paused" ></path>
<path d="M1666 92.5 L603.0202120097183 92.5 A15.5 15.5 0 0 0 603.0202120097183 124.5 L1666 124.5" fill="#fff" transform="matrix(1,0,0,1,-14.107524871826172,0)" style="transform:matrix(1, 0, 0, 1, -14.1075, 0);animation-play-state:paused" ></path>
<path d="M734.1022891562616 92.5 L765.0731327770892 92.5 A15.5 15.5 0 0 1 765.0731327770892 124.5 L734.1022891562616 124.5 A15.5 15.5 0 0 1 734.1022891562616 92.5" fill="#fff" transform="matrix(1,0,0,1,0,0)" opacity="0.816327" style="transform:matrix(1, 0, 0, 1, 0, 0);opacity:0.816327;animation-play-state:paused" ></path>
<path d="M1666 123.5 L648.7367574991783 123.5 A15.5 15.5 0 0 1 648.7367574991783 155.5 L1666 155.5" fill="#fff" transform="matrix(1,0,0,1,31.773548126220703,0)" style="transform:matrix(1, 0, 0, 1, 31.7735, 0);animation-play-state:paused" ></path>
<path d="M1412.918807748148 123.5 L1428.8376154962962 123.5 A15.5 15.5 0 0 1 1428.8376154962962 155.5 L1412.918807748148 155.5 A15.5 15.5 0 0 1 1412.918807748148 123.5" fill="#000" transform="matrix(1,0,0,1,-927.5284423828125,0)" opacity="0.408163" style="transform:matrix(1, 0, 0, 1, -927.528, 0);opacity:0.408163;animation-play-state:paused" ></path>
<path d="M1666 154.5 L613.7053082383949 154.5 A15.5 15.5 0 0 0 613.7053082383949 186.5 L1666 186.5" fill="#fff" transform="matrix(1,0,0,1,-35.51137161254883,0)" style="transform:matrix(1, 0, 0, 1, -35.5114, 0);animation-play-state:paused" ></path>
<path d="M718.2988961998857 154.5 L730.0475579600254 154.5 A15.5 15.5 0 0 1 730.0475579600254 186.5 L718.2988961998857 186.5 A15.5 15.5 0 0 1 718.2988961998857 154.5" fill="#fff" transform="matrix(1,0,0,1,0,0)" opacity="0.816327" style="transform:matrix(1, 0, 0, 1, 0, 0);opacity:0.816327;animation-play-state:paused" ></path>
<path d="M1666 185.5 L627.0643418392365 185.5 A15.5 15.5 0 0 1 627.0643418392365 217.5 L1666 217.5" fill="#fff" transform="matrix(1,0,0,1,27.997222900390625,0)" style="transform:matrix(1, 0, 0, 1, 27.9972, 0);animation-play-state:paused" ></path>
<path d="M1410.3476688184269 185.5 L1423.6953376368538 185.5 A15.5 15.5 0 0 1 1423.6953376368538 217.5 L1410.3476688184269 217.5 A15.5 15.5 0 0 1 1410.3476688184269 185.5" fill="#000" transform="matrix(1,0,0,1,-1035.2467041015625,0)" opacity="0.204082" style="transform:matrix(1, 0, 0, 1, -1035.25, 0);opacity:0.204082;animation-play-state:paused" ></path>
<path d="M1666 216.5 L612.869317081072 216.5 A15.5 15.5 0 0 0 612.869317081072 248.5 L1666 248.5" fill="#fff" transform="matrix(1,0,0,1,-48.23433303833008,0)" style="transform:matrix(1, 0, 0, 1, -48.2343, 0);animation-play-state:paused" ></path>
<path d="M727.9443633726476 216.5 L739.5558264692825 216.5 A15.5 15.5 0 0 1 739.5558264692825 248.5 L727.9443633726476 248.5 A15.5 15.5 0 0 1 727.9443633726476 216.5" fill="#fff" transform="matrix(1,0,0,1,0,0)" opacity="1" style="transform:matrix(1, 0, 0, 1, 0, 0);animation-play-state:paused" ></path>
<path d="M1666 247.5 L643.6830165173941 247.5 A15.5 15.5 0 0 1 643.6830165173941 279.5 L1666 279.5" fill="#fff" transform="matrix(1,0,0,1,17.18701934814453,0)" style="transform:matrix(1, 0, 0, 1, 17.187, 0);animation-play-state:paused" ></path>
<path d="M1427.0146328080675 247.5 L1457.029265616135 247.5 A15.5 15.5 0 0 1 1457.029265616135 279.5 L1427.0146328080675 279.5 A15.5 15.5 0 0 1 1427.0146328080675 247.5" fill="#000" transform="matrix(1,0,0,1,-451.6435852050781,0)" opacity="1" style="transform:matrix(1, 0, 0, 1, -451.644, 0);animation-play-state:paused" ></path>
<path d="M1666 278.5 L611.8137405760613 278.5 A15.5 15.5 0 0 0 611.8137405760613 310.5 L1666 310.5" fill="#fff" transform="matrix(1,0,0,1,-38.48109817504883,0)" style="transform:matrix(1, 0, 0, 1, -38.4811, 0);animation-play-state:paused" ></path>
<path d="M743.1078500685664 278.5 L774.1826792076658 278.5 A15.5 15.5 0 0 1 774.1826792076658 310.5 L743.1078500685664 310.5 A15.5 15.5 0 0 1 743.1078500685664 278.5" fill="#fff" transform="matrix(1,0,0,1,0,0)" opacity="1" style="transform:matrix(1, 0, 0, 1, 0, 0);animation-play-state:paused" ></path>
<path d="M1666 309.5 L682.809787469653 309.5 A15.5 15.5 0 0 1 682.809787469653 341.5 L1666 341.5" fill="#fff" transform="matrix(1,0,0,1,13.617719650268555,0)" style="transform:matrix(1, 0, 0, 1, 13.6177, 0);animation-play-state:paused" ></path>
<path d="M1429.5618399497414 309.5 L1462.1236798994828 309.5 A15.5 15.5 0 0 1 1462.1236798994828 341.5 L1429.5618399497414 341.5 A15.5 15.5 0 0 1 1429.5618399497414 309.5" fill="#000" transform="matrix(1,0,0,1,-539.5653076171875,0)" opacity="0.816327" style="transform:matrix(1, 0, 0, 1, -539.565, 0);opacity:0.816327;animation-play-state:paused" ></path>
<path d="M1666 340.5 L621.8743348592243 340.5 A15.5 15.5 0 0 0 621.8743348592243 372.5 L1666 372.5" fill="#fff" transform="matrix(1,0,0,1,-12.219610214233398,0)" style="transform:matrix(1, 0, 0, 1, -12.2196, 0);animation-play-state:paused" ></path>
<path d="M761.1463126052865 340.5 L795.5902845847535 340.5 A15.5 15.5 0 0 1 795.5902845847535 372.5 L761.1463126052865 372.5 A15.5 15.5 0 0 1 761.1463126052865 340.5" fill="#fff" transform="matrix(1,0,0,1,0,0)" opacity="1" style="transform:matrix(1, 0, 0, 1, 0, 0);animation-play-state:paused" ></path>
<path d="M1666 371.5 L695.2365483828929 371.5 A15.5 15.5 0 0 1 695.2365483828929 403.5 L1666 403.5" fill="#fff" transform="matrix(1,0,0,1,29.59402847290039,0)" style="transform:matrix(1, 0, 0, 1, 29.594, 0);animation-play-state:paused" ></path>
<path d="M1432.8918800273132 371.5 L1468.7837600546263 371.5 A15.5 15.5 0 0 1 1468.7837600546263 403.5 L1432.8918800273132 403.5 A15.5 15.5 0 0 1 1432.8918800273132 371.5" fill="#000" transform="matrix(1,0,0,1,-1083.2996826171875,0)" opacity="0.408163" style="transform:matrix(1, 0, 0, 1, -1083.3, 0);opacity:0.408163;animation-play-state:paused" ></path>
<path d="M1666 402.5 L633.3619866104107 402.5 A15.5 15.5 0 0 0 633.3619866104107 434.5 L1666 434.5" fill="#fff" transform="matrix(1,0,0,1,-36.68653869628906,0)" style="transform:matrix(1, 0, 0, 1, -36.6865, 0);animation-play-state:paused" ></path>
<path d="M765.7458374767739 402.5 L787.8089097370514 402.5 A15.5 15.5 0 0 1 787.8089097370514 434.5 L765.7458374767739 434.5 A15.5 15.5 0 0 1 765.7458374767739 402.5" fill="#fff" transform="matrix(1,0,0,1,0,0)" opacity="0.204082" style="transform:matrix(1, 0, 0, 1, 0, 0);opacity:0.204082;animation-play-state:paused" ></path>
<path d="M1666 433.5 L684.0613116314692 433.5 A15.5 15.5 0 0 1 684.0613116314692 465.5 L1666 465.5" fill="#fff" transform="matrix(1,0,0,1,45.824005126953125,0)" style="transform:matrix(1, 0, 0, 1, 45.824, 0);animation-play-state:paused" ></path>
<path d="M1415.7212888747174 433.5 L1434.4425777494348 433.5 A15.5 15.5 0 0 1 1434.4425777494348 465.5 L1415.7212888747174 465.5 A15.5 15.5 0 0 1 1415.7212888747174 433.5" fill="#000" transform="matrix(1,0,0,1,0,0)" opacity="1" style="transform:matrix(1, 0, 0, 1, 0, 0);animation-play-state:paused" ></path>
<path d="M1666 464.5 L658.2208767219556 464.5 A15.5 15.5 0 0 0 658.2208767219556 496.5 L1666 496.5" fill="#fff" transform="matrix(1,0,0,1,-37.455528259277344,0)" style="transform:matrix(1, 0, 0, 1, -37.4555, 0);animation-play-state:paused" ></path>
<path d="M753.0109520898257 464.5 L779.3460496059711 464.5 A15.5 15.5 0 0 1 779.3460496059711 496.5 L753.0109520898257 496.5 A15.5 15.5 0 0 1 753.0109520898257 464.5" fill="#fff" transform="matrix(1,0,0,1,0,0)" opacity="1" style="transform:matrix(1, 0, 0, 1, 0, 0);animation-play-state:paused" ></path>
<path d="M1666 495.5 L715.8680166285736 495.5 A15.5 15.5 0 0 1 715.8680166285736 527.5 L1666 527.5" fill="#fff" transform="matrix(1,0,0,1,0.789631187915802,0)" style="transform:matrix(1, 0, 0, 1, 0.789631, 0);animation-play-state:paused" ></path>
<path d="M1429.0572716707707 495.5 L1461.1145433415413 495.5 A15.5 15.5 0 0 1 1461.1145433415413 527.5 L1429.0572716707707 527.5 A15.5 15.5 0 0 1 1429.0572716707707 495.5" fill="#000" transform="matrix(1,0,0,1,-663.264892578125,0)" opacity="0.612245" style="transform:matrix(1, 0, 0, 1, -663.265, 0);opacity:0.612245;animation-play-state:paused" ></path>
<path d="M1666 526.5 L675.8748824053758 526.5 A15.5 15.5 0 0 0 675.8748824053758 558.5 L1666 558.5" fill="#fff" transform="matrix(1,0,0,1,-0.9974861145019531,0)" style="transform:matrix(1, 0, 0, 1, -0.997486, 0);animation-play-state:paused" ></path>
<path d="M756.0795152257793 526.5 L784.5331411521094 526.5 A15.5 15.5 0 0 1 784.5331411521094 558.5 L756.0795152257793 558.5 A15.5 15.5 0 0 1 756.0795152257793 526.5" fill="#fff" transform="matrix(1,0,0,1,0,0)" opacity="0.204082" style="transform:matrix(1, 0, 0, 1, 0, 0);opacity:0.204082;animation-play-state:paused" ></path>
<path d="M1666 557.5 L682.7045983182754 557.5 A15.5 15.5 0 0 1 682.7045983182754 589.5 L1666 589.5" fill="#fff" transform="matrix(1,0,0,1,25.61501121520996,0)" style="transform:matrix(1, 0, 0, 1, 25.615, 0);animation-play-state:paused" ></path>
<path d="M1425.1510077920025 557.5 L1453.302015584005 557.5 A15.5 15.5 0 0 1 1453.302015584005 589.5 L1425.1510077920025 589.5 A15.5 15.5 0 0 1 1425.1510077920025 557.5" fill="#000" transform="matrix(1,0,0,1,-213.1028289794922,0)" opacity="1" style="transform:matrix(1, 0, 0, 1, -213.103, 0);animation-play-state:paused" ></path>
<path d="M1666 588.5 L650.2350624538149 588.5 A15.5 15.5 0 0 0 650.2350624538149 620.5 L1666 620.5" fill="#fff" transform="matrix(1,0,0,1,-29.994468688964844,0)" style="transform:matrix(1, 0, 0, 1, -29.9945, 0);animation-play-state:paused" ></path>
<path d="M767.5985087966435 588.5 L805.9505463166687 588.5 A15.5 15.5 0 0 1 805.9505463166687 620.5 L767.5985087966435 620.5 A15.5 15.5 0 0 1 767.5985087966435 588.5" fill="#fff" transform="matrix(1,0,0,1,0,0)" opacity="0.408163" style="transform:matrix(1, 0, 0, 1, 0, 0);opacity:0.408163;animation-play-state:paused" ></path>
<path d="M1666 619.5 L655.5854481655373 619.5 A15.5 15.5 0 0 1 655.5854481655373 651.5 L1666 651.5" fill="#fff" transform="matrix(1,0,0,1,1.3245123624801636,0)" style="transform:matrix(1, 0, 0, 1, 1.32451, 0);animation-play-state:paused" ></path>
<path d="M1424.922246269771 619.5 L1452.844492539542 619.5 A15.5 15.5 0 0 1 1452.844492539542 651.5 L1424.922246269771 651.5 A15.5 15.5 0 0 1 1424.922246269771 619.5" fill="#000" transform="matrix(1,0,0,1,-1239.626953125,0)" opacity="0.204082" style="transform:matrix(1, 0, 0, 1, -1239.63, 0);opacity:0.204082;animation-play-state:paused" ></path></g></mask></defs>


<rect x="0" y="0" width="1366" height="636" fill="url(#ldbk-photon-385uhr6h1te-lg)" mask="url(#ldbk-photon-385uhr6h1te-mask)" style="animation-play-state:paused" ></rect></g></svg>